#Unknown ASF file
:ROOT_YZX
:FOOT_3DOF
:FULLY-SPECIFIED
:DEGREES
1295
root 6.13755 17.4754 13.8554 -5.01392 -178.974 0.664898
lfemur -10.5993 -0.482059 -23.6177
ltibia 38.1667
lfoot -18.009 0 -3.80752
ltoes -13.6145
rfemur -14.0395 -6.96716 17.138
rtibia 73.8325
rfoot 2.21037 0 -10.0605
rtoes 0.116591
lowerback 11.7756 3.05851 -3.43849
upperback 3.63044 3.2901 0.0986764
thorax -2.99843 1.47649 1.57423
lowerneck -8.62297 -11.7571 -24.3951
upperneck 4.041 -14.7086 19.9259
head 6.02834 -6.96649 8.89212
lclavicle 4.51241e-014 -9.54166e-015
lhumerus -36.4356 15.8915 77.1671
lradius 21.1899
lwrist -8.23201
lhand -12.6539 28.4153
lfingers 7.12502
lthumb 13.4268 57.9626
rclavicle 4.51241e-014 -9.54166e-015
rhumerus -29.7649 -8.66734 -78.1708
rradius 38.0737
rwrist -3.08755
rhand -22.1672 10.3635
rfingers 7.12502
rthumb 4.24735 -19.5739
1296
root 6.1127 17.3797 13.3961 -5.01136 -178.346 1.57134
lfemur -9.53854 -0.581594 -24.7082
ltibia 39.0557
lfoot -19.9112 0 -4.11056
ltoes -12.475
rfemur -19.0799 -6.99262 16.755
rtibia 74.3898
rfoot -4.69171 0 -8.1258
rtoes -3.86431
lowerback 12.2126 2.4779 -4.61306
upperback 3.27074 2.37422 0.0494785
thorax -3.60699 1.05229 2.29769
lowerneck -8.04754 -11.3087 -24.3517
upperneck 4.28567 -14.3201 20.2477
head 5.94624 -6.80105 9.09593
lclavicle 2.54693e-016 3.97569e-015
lhumerus -34.6597 15.0854 78.1487
lradius 21.3725
lwrist -8.03169
lhand -13.0161 30.261
lfingers 7.12502
lthumb 13.0777 59.831
rclavicle 2.54693e-016 3.97569e-015
rhumerus -30.7457 -9.12538 -78.5797
rradius 36.2584
rwrist -2.46812
rhand -22.5344 12.2001
rfingers 7.12502
rthumb 3.89272 -17.744
1297
root 6.06012 17.3165 12.8919 -5.22388 -178.533 2.57317
lfemur -7.13478 -0.402565 -26.0225
ltibia 38.7342
lfoot -21.2145 0 -3.78757
ltoes -11.4858
rfemur -23.0778 -6.78864 16.1623
rtibia 72.152
rfoot -9.44056 0 -7.32464
rtoes -7.5577
lowerback 12.1354 1.99629 -5.39846
upperback 3.27315 1.62809 -0.126847
thorax -3.52176 0.681734 2.67402
lowerneck -8.59379 -11.0361 -23.782
upperneck 5.12883 -13.9439 19.8225
head 6.12905 -6.59488 8.8994
lclavicle -1.25762e-014 -2.03754e-015
lhumerus -32.4814 14.9229 78.8211
lradius 21.2221
lwrist -8.18576
lhand -13.0817 31.3981
lfingers 7.12502
lthumb 13.0144 60.9722
rclavicle -1.25762e-014 -2.03754e-015
rhumerus -30.9079 -9.82043 -79.1155
rradius 33.5231
rwrist -1.34215
rhand -22.2959 14.1886
rfingers 7.12502
rthumb 4.12301 -15.7512
1298
root 6.00792 17.3105 12.3747 -5.45778 -177.911 3.64159
lfemur -3.84903 -0.856559 -27.528
ltibia 36.8152
lfoot -21.9636 0 -3.4195
ltoes -12.7313
rfemur -25.9082 -7.57491 15.4573
rtibia 67.055
rfoot -14.0858 0 -6.13108
rtoes -14.0465
lowerback 12.222 1.30208 -6.2791
upperback 3.07798 0.594021 -0.227288
thorax -3.68979 0.18925 3.22266
lowerneck -8.76436 -10.6866 -23.4836
upperneck 6.04421 -13.579 19.6994
head 6.32379 -6.4126 8.87045
lclavicle 1.13059e-015 7.40473e-015
lhumerus -30.6348 13.3326 80.0235
lradius 21.3752
lwrist -7.48995
lhand -13.5945 31.2131
lfingers 7.12502
lthumb 12.5201 60.818
rclavicle 1.13059e-015 7.40473e-015
rhumerus -32.0566 -10.5283 -79.1622
rradius 30.9061
rwrist 0.055163
rhand -21.8634 14.874
rfingers 7.12502
rthumb 4.54071 -15.0573
1299
root 5.97085 17.3502 11.8478 -5.1433 -177.878 4.51994
lfemur -0.387619 -1.0647 -28.7652
ltibia 33.4961
lfoot -22.0384 0 -2.85987
ltoes -15.7662
rfemur -28.3326 -7.68734 15.2848
rtibia 59.5782
rfoot -13.3769 0 -7.17294
rtoes -12.3262
lowerback 11.7457 0.788579 -7.08262
upperback 2.964 -0.13357 -0.214809
thorax -3.46935 -0.162247 3.79724
lowerneck -9.03739 -10.4843 -23.1483
upperneck 6.28337 -13.3113 19.6046
head 6.3521 -6.26863 8.81806
lclavicle 4.2366e-015 2.78299e-015
lhumerus -29.5068 8.85072 82.2576
lradius 24.0777
lwrist -4.5
lhand -13.4322 31.9601
lfingers 7.12502
lthumb 12.6766 61.5554
rclavicle 4.2366e-015 2.78299e-015
rhumerus -32.8345 -11.2383 -79.0445
rradius 28.5864
rwrist 2.31543
rhand -21.807 15.1285
rfingers 7.12502
rthumb 4.59509 -14.8016
1300
root 5.94251 17.4296 11.3326 -4.63716 -178.024 4.79315
lfemur 3.03711 -1.11273 -29.2529
ltibia 29.4872
lfoot -21.0021 0 -2.2543
ltoes -18.2407
rfemur -29.9085 -7.09096 15.8303
rtibia 50.0707
rfoot -11.0882 0 -7.15637
rtoes -9.50707
lowerback 11.6133 0.289241 -7.39407
upperback 2.49363 -0.775444 0.0384041
thorax -3.80511 -0.42823 4.33368
lowerneck -9.37155 -10.3482 -22.5869
upperneck 6.88717 -12.9493 19.2758
head 6.45694 -5.9493 8.67201
lclavicle -1.63003e-014 -8.15017e-015
lhumerus -28.2044 6.77557 83.2982
lradius 25.1887
lwrist -4.44663
lhand -13.2663 30.6982
lfingers 7.12502
lthumb 12.8365 60.2835
rclavicle -1.63003e-014 -8.15017e-015
rhumerus -34.411 -10.9735 -78.8648
rradius 27.0793
rwrist 3.63647
rhand -21.5575 16.8736
rfingers 7.12502
rthumb 4.83608 -13.0512
